<svg xmlns="http://www.w3.org/2000/svg" viewBox="0 0 172.32 168.08"><defs><style>.cls-1{fill:#0b4156;}.cls-2{fill:#1c1c1c;}.cls-2,.cls-6{opacity:0.5;}.cls-3,.cls-4{fill:#ffa80a;}.cls-4,.cls-7{fill-rule:evenodd;}.cls-5,.cls-6{fill:#2ab1f6;}.cls-13,.cls-7{fill:#005381;}.cls-8{fill:#032532;}.cls-9{fill:#fff;}.cls-10{fill:#002733;}.cls-11{fill:#231f20;}.cls-12{fill:#002e44;}</style></defs><title>blue-monster_1</title><g id="Layer_2" data-name="Layer 2"><g id="Objects"><path class="cls-1" d="M103.46,121.59c1.74,0,3.16,2.2,3.16,4.93V158a14.36,14.36,0,0,1,9.19-3.54c7.57,0,13.7,1.53,13.7,11.59,0,1.13-6.13,2.05-13.7,2.05-6,0-11-.57-12.89-1.36-1.49-.4-2.62-2.42-2.62-4.86V126.52C100.3,123.79,101.71,121.59,103.46,121.59Z"/><path class="cls-2" d="M103.56,121.6l-.1,0c-1.75,0-3.16,2.21-3.16,4.94v35.34c0,2.44,1.13,4.46,2.62,4.86.18.07.4.15.64.22Z"/><path class="cls-3" d="M100.3,143.32l4.47-1-4.47-.6Z"/><path class="cls-3" d="M106.62,133.35v-2.08l-5.5,2.6Z"/><polygon class="cls-4" points="101.75 155.14 106.62 153.93 106.62 153 101.75 155.14"/><path class="cls-1" d="M78.53,121.59c-1.75,0-3.17,2.2-3.17,4.93V158a14.36,14.36,0,0,0-9.19-3.54c-7.56,0-13.7,1.53-13.7,11.59,0,1.13,6.14,2.05,13.7,2.05,6,0,11-.57,12.89-1.36,1.49-.4,2.63-2.42,2.63-4.86V126.52C81.69,123.79,80.27,121.59,78.53,121.59Z"/><path class="cls-2" d="M78.42,121.6l.11,0c1.74,0,3.16,2.21,3.16,4.94v35.34c0,2.44-1.14,4.46-2.63,4.86-.18.07-.4.15-.64.22Z"/><path class="cls-3" d="M81.69,143.32l-4.48-1,4.48-.6Z"/><path class="cls-3" d="M75.36,133.35v-2.08l5.5,2.6Z"/><polygon class="cls-4" points="80.23 155.14 75.36 153.93 75.36 153 80.23 155.14"/><path class="cls-5" d="M152.75,63.83c0,58.75,0,64.69-58.74,64.69s-58.74-5.94-58.74-64.69a58.74,58.74,0,0,1,117.48,0Z"/><path class="cls-6" d="M94,5.09c-.74,0-1.47,0-2.2.06C104.36,28.41,132,91.5,85,128.46q4.26.06,9,.06c58.74,0,58.74-5.94,58.74-64.69A58.74,58.74,0,0,0,94,5.09Z"/><path class="cls-6" d="M97.3,5.19c11.43,9.91,30.06,30.13,34.13,59.31,5.69,40.79-8.22,55.33-21.31,63.79,42.62-1.52,42.63-11.67,42.63-64.46A58.73,58.73,0,0,0,97.3,5.19Z"/><path class="cls-7" d="M64,43c-7,10.82-18.69,14.44-20.7,13.14S34.94,50.43,48.54,32s17-17.07,20-15.06C70.52,18.28,70.94,32.19,64,43Z"/><path class="cls-7" d="M56.18,69.89c-3.12,4.84-8.35,6.45-9.25,5.87S43.21,73.2,49.29,65s7.58-7.64,8.94-6.74C59.12,58.83,59.3,65.05,56.18,69.89Z"/><path class="cls-7" d="M143.83,73.22c-3.94,6.11-13.43,6.29-15.45,5S120,72.6,128.2,62.55s11.4-8.46,14.45-6.46C144.65,57.4,147.77,67.11,143.83,73.22Z"/><path class="cls-7" d="M126,115.92c-1.77,2.73-6,2.81-6.91,2.23s-3.76-2.51-.08-7,5.09-3.78,6.45-2.89C126.36,108.84,127.76,113.19,126,115.92Z"/><path class="cls-8" d="M122.53,85.15a28.55,28.55,0,0,1-19.46,27c-.56.18-1.11.35-1.69.5a28,28,0,0,1-6.52,1l-.85,0-.84,0a28.2,28.2,0,0,1-6.53-1c-.57-.15-1.13-.32-1.69-.5a28.53,28.53,0,0,1-19.45-27Z"/><path class="cls-9" d="M78.91,85.15v3.5a3.26,3.26,0,0,1-3.26,3.26,3.28,3.28,0,0,1-3.27-3.26v-3.5Z"/><path class="cls-9" d="M85,109.13v3.06A28.29,28.29,0,0,1,78.43,109a3.26,3.26,0,0,1,6.52.1Z"/><path class="cls-9" d="M93.17,109.13v4.51a28.2,28.2,0,0,1-6.53-1v-3.56a3.26,3.26,0,0,1,3.27-3.26,3.22,3.22,0,0,1,2.3.95A3.27,3.27,0,0,1,93.17,109.13Z"/><path class="cls-9" d="M101.38,109.13v3.56a28,28,0,0,1-6.52,1v-4.51a3.26,3.26,0,1,1,6.52,0Z"/><path class="cls-9" d="M109.59,109a28.29,28.29,0,0,1-6.52,3.16v-3.06a3.27,3.27,0,0,1,5.57-2.31A3.21,3.21,0,0,1,109.59,109Z"/><path class="cls-9" d="M88.21,85.15v3.5A3.26,3.26,0,0,1,85,91.91a3.22,3.22,0,0,1-2.31-1,3.26,3.26,0,0,1-1-2.3v-3.5Z"/><path class="cls-9" d="M97.52,85.15v3.5a3.27,3.27,0,0,1-3.26,3.26A3.28,3.28,0,0,1,91,88.65v-3.5Z"/><path class="cls-9" d="M106.82,85.15v3.5a3.26,3.26,0,0,1-3.26,3.26,3.26,3.26,0,0,1-3.26-3.26v-3.5Z"/><path class="cls-9" d="M116.12,85.15v3.5a3.26,3.26,0,0,1-3.26,3.26,3.22,3.22,0,0,1-2.31-1,3.26,3.26,0,0,1-1-2.3v-3.5Z"/><path class="cls-10" d="M69.8,55.7a10.14,10.14,0,0,1-9.57-13.52,10.14,10.14,0,1,0,18.28,8.56A10.15,10.15,0,0,1,69.8,55.7Z"/><path class="cls-9" d="M80,45.55A10.15,10.15,0,1,1,69.8,35.4,10.16,10.16,0,0,1,80,45.55Z"/><path class="cls-11" d="M76.73,42.36A4.35,4.35,0,1,1,72.38,38,4.35,4.35,0,0,1,76.73,42.36Z"/><path class="cls-10" d="M112.39,56.42a10.13,10.13,0,0,1-9.57-13.51,10.14,10.14,0,1,0,18.28,8.55A10.13,10.13,0,0,1,112.39,56.42Z"/><circle class="cls-9" cx="112.39" cy="46.27" r="10.15" transform="translate(41.63 145.1) rotate(-76.78)"/><path class="cls-11" d="M119.32,43.08A4.35,4.35,0,1,1,115,38.73,4.34,4.34,0,0,1,119.32,43.08Z"/><path class="cls-12" d="M94,68.49h0a6,6,0,0,1-4.66-2.19.72.72,0,0,1,1.12-.92A4.59,4.59,0,0,0,94,67.05h0a4.6,4.6,0,0,0,3.55-1.67.73.73,0,0,1,1-.1.72.72,0,0,1,.09,1A6,6,0,0,1,94,68.49Z"/><path class="cls-13" d="M134.62,21.41a15.06,15.06,0,0,0,5.56-6.9c2.55-6,1.31-12.35-2.77-14.07s-9.46,1.78-12,7.83a16.49,16.49,0,0,0-1.27,5.12A59.54,59.54,0,0,1,134.62,21.41Z"/><path class="cls-12" d="M137.41.44a6.84,6.84,0,0,0-6.21.78c6.69,3.35,9.17,7.23,6.85,17a17.13,17.13,0,0,0,2.13-3.68C142.73,8.47,141.49,2.16,137.41.44Z"/><path class="cls-13" d="M53.69,21.14A59,59,0,0,1,64.57,13a16.72,16.72,0,0,0-1.24-4.74c-2.56-6-7.94-9.56-12-7.83s-5.32,8-2.76,14.07A15.36,15.36,0,0,0,53.69,21.14Z"/><path class="cls-12" d="M63.33,8.27c-2.56-6-7.94-9.56-12-7.83A5.72,5.72,0,0,0,49,2.25c5.91-1,9.78,4,12.64,12.57,1-.63,1.93-1.23,2.92-1.81A16.72,16.72,0,0,0,63.33,8.27Z"/><path class="cls-1" d="M171.12,85.29c-2.37-12.54-8.34-24.77-19.26-31.61a58.59,58.59,0,0,1,.89,10.15v3.08c4.7,5.42,7.57,12.68,9,20.14,1.88,10,1.17,20.07-1.22,26.74a7.93,7.93,0,1,0,8.57,4.37C172.29,109.94,173.39,97.37,171.12,85.29Z"/><path class="cls-2" d="M152.69,61.12c0,.9.06,1.8.06,2.71v3.08c4.7,5.42,7.57,12.68,9,20.14,1.88,10,1.17,20.07-1.22,26.74C160.5,113.79,174.87,76.32,152.69,61.12Z"/><path class="cls-3" d="M161.72,87.05c.18.92.32,1.84.45,2.76,1.11-1.39,2.19-2.78,3.21-4.18l-4,0C161.52,86.09,161.63,86.57,161.72,87.05Z"/><path class="cls-3" d="M166.49,101.15l5.67,1.86c.07-1,.11-2,.13-3.07Z"/><path class="cls-3" d="M166.37,70.55,158.76,70l8.45,2.34Q166.81,71.45,166.37,70.55Z"/><path class="cls-12" d="M17.64,85.29C20,72.75,26,60.52,36.9,53.68A58.58,58.58,0,0,0,36,63.83v3.08c-4.7,5.42-7.56,12.68-9,20.14-1.87,10-1.16,20.07,1.23,26.74a7.93,7.93,0,1,1-8.57,4.37C16.47,109.94,15.37,97.37,17.64,85.29Z"/><path class="cls-3" d="M27,87.05c-.17.92-.31,1.84-.44,2.76-1.11-1.39-2.19-2.78-3.22-4.18l4,0C27.24,86.09,27.13,86.57,27,87.05Z"/><path class="cls-3" d="M22.27,101.15,16.6,103c-.07-1-.11-2-.13-3.07Z"/><path class="cls-3" d="M22.39,70.55,30,70l-8.45,2.34Q22,71.45,22.39,70.55Z"/><path class="cls-9" d="M16.94,37.33l-.27.23,3.44,6.72-1.5,1.46-1.33-1.57.57,1.4-1.26.49-3.34-6-3,2.23,3.79,5.58-1.17,1.23-2-2.06,1.73,2.65-2,0-3.51-5L5.65,45.82l-1.43-1.4.92-1.27-1,.56-.66-1.2L4.8,41.45,0,34.62l.87-2.39,2.37,2.54L2,33l1-1.32,4.9,7.23,3.18-2.62L7.17,29.18l2.09-1.82L11,30l-.9-2.29,1.24-.47,3.25,6.33,1.79,1.87-.54.57.22.4.29-.17Z"/><path class="cls-9" d="M25.78,41.06,14.63,25.19l1.82-1.08,1.66,1.69L17.38,24l1.32-.4L28.88,37.41l-1.26,1.05L26.21,37.2l2,2.89Z"/><path class="cls-9" d="M31.87,27.59l-1.06-1.15L32,28.79l-2.31,1.38L22.31,18.91l1.34-1.3,1.71,2-.59-1.74L26.86,17l6.5,10Zm5.24,8.13-.84-.83L37,37.11l-2.67.8-3-5.34L33,31.5l1.21,1.39-.54-1.32,1.93-1,2.16,4.14Z"/></g></g></svg>